<svg xmlns="http://www.w3.org/2000/svg" xmlns:xlink="http://www.w3.org/1999/xlink" width="805" zoomAndPan="magnify" viewBox="0 0 603.75 558.75" height="745" preserveAspectRatio="xMidYMid meet" version="1.0"><defs><clipPath id="0c741bb4d4"><path d="M 15 0.664062 L 37 0.664062 L 37 23 L 15 23 Z M 15 0.664062 " clip-rule="nonzero"/></clipPath><clipPath id="d85eac6d11"><path d="M 1.050781 24 L 50.933594 24 L 50.933594 130 L 1.050781 130 Z M 1.050781 24 " clip-rule="nonzero"/></clipPath><clipPath id="eb3ec30d72"><path d="M 70.25 23 L 120.132812 23 L 120.132812 129 L 70.25 129 Z M 70.25 23 " clip-rule="nonzero"/></clipPath><clipPath id="7c3b7238c2"><path d="M 153 0.664062 L 176 0.664062 L 176 23 L 153 23 Z M 153 0.664062 " clip-rule="nonzero"/></clipPath><clipPath id="0e31b62c68"><path d="M 139.257812 24 L 189.140625 24 L 189.140625 130 L 139.257812 130 Z M 139.257812 24 " clip-rule="nonzero"/></clipPath><clipPath id="c34975e2d8"><path d="M 222 0.664062 L 245 0.664062 L 245 23 L 222 23 Z M 222 0.664062 " clip-rule="nonzero"/></clipPath><clipPath id="08431e28da"><path d="M 208.265625 24 L 258.152344 24 L 258.152344 130 L 208.265625 130 Z M 208.265625 24 " clip-rule="nonzero"/></clipPath><clipPath id="011da9dd76"><path d="M 291 0.664062 L 314 0.664062 L 314 23 L 291 23 Z M 291 0.664062 " clip-rule="nonzero"/></clipPath><clipPath id="c5094ebe15"><path d="M 277.277344 24 L 327.160156 24 L 327.160156 130 L 277.277344 130 Z M 277.277344 24 " clip-rule="nonzero"/></clipPath><clipPath id="3ab3d5f20d"><path d="M 346.285156 23 L 396.167969 23 L 396.167969 129 L 346.285156 129 Z M 346.285156 23 " clip-rule="nonzero"/></clipPath><clipPath id="fe6f2fb6aa"><path d="M 415.292969 23 L 465.179688 23 L 465.179688 129 L 415.292969 129 Z M 415.292969 23 " clip-rule="nonzero"/></clipPath><clipPath id="b750c3390a"><path d="M 484.304688 23 L 534.1875 23 L 534.1875 129 L 484.304688 129 Z M 484.304688 23 " clip-rule="nonzero"/></clipPath><clipPath id="12f99791a3"><path d="M 14 143.03125 L 36 143.03125 L 36 165 L 14 165 Z M 14 143.03125 " clip-rule="nonzero"/></clipPath><clipPath id="3d54188e44"><path d="M 0.0117188 166 L 49.894531 166 L 49.894531 272 L 0.0117188 272 Z M 0.0117188 166 " clip-rule="nonzero"/></clipPath><clipPath id="4348f6aa71"><path d="M 83 142.367188 L 105 142.367188 L 105 164 L 83 164 Z M 83 142.367188 " clip-rule="nonzero"/></clipPath><clipPath id="071f19688d"><path d="M 69.207031 166 L 119.09375 166 L 119.09375 272 L 69.207031 272 Z M 69.207031 166 " clip-rule="nonzero"/></clipPath><clipPath id="81659225a8"><path d="M 152 143.03125 L 175 143.03125 L 175 165 L 152 165 Z M 152 143.03125 " clip-rule="nonzero"/></clipPath><clipPath id="54b3aa091c"><path d="M 138.21875 166 L 188.101562 166 L 188.101562 272 L 138.21875 272 Z M 138.21875 166 " clip-rule="nonzero"/></clipPath><clipPath id="ebb5f0ae86"><path d="M 221 143.03125 L 244 143.03125 L 244 165 L 221 165 Z M 221 143.03125 " clip-rule="nonzero"/></clipPath><clipPath id="ff425913d2"><path d="M 207.226562 166 L 257.109375 166 L 257.109375 272 L 207.226562 272 Z M 207.226562 166 " clip-rule="nonzero"/></clipPath><clipPath id="aaa9547eae"><path d="M 290 143.03125 L 313 143.03125 L 313 165 L 290 165 Z M 290 143.03125 " clip-rule="nonzero"/></clipPath><clipPath id="35c4639b60"><path d="M 276.234375 166 L 326.117188 166 L 326.117188 272 L 276.234375 272 Z M 276.234375 166 " clip-rule="nonzero"/></clipPath><clipPath id="65e40ddff0"><path d="M 359 142.367188 L 382 142.367188 L 382 164 L 359 164 Z M 359 142.367188 " clip-rule="nonzero"/></clipPath><clipPath id="198096ffe5"><path d="M 345.246094 166 L 395.128906 166 L 395.128906 272 L 345.246094 272 Z M 345.246094 166 " clip-rule="nonzero"/></clipPath><clipPath id="1214f62d56"><path d="M 428 142.367188 L 451 142.367188 L 451 164 L 428 164 Z M 428 142.367188 " clip-rule="nonzero"/></clipPath><clipPath id="568067c292"><path d="M 414.253906 166 L 464.136719 166 L 464.136719 272 L 414.253906 272 Z M 414.253906 166 " clip-rule="nonzero"/></clipPath><clipPath id="ce33616e37"><path d="M 497 142.367188 L 520 142.367188 L 520 164 L 497 164 Z M 497 142.367188 " clip-rule="nonzero"/></clipPath><clipPath id="c238d45ce6"><path d="M 483.261719 166 L 533.144531 166 L 533.144531 272 L 483.261719 272 Z M 483.261719 166 " clip-rule="nonzero"/></clipPath><clipPath id="83a18931a6"><path d="M 14 284.734375 L 36 284.734375 L 36 307 L 14 307 Z M 14 284.734375 " clip-rule="nonzero"/></clipPath><clipPath id="e3dccef297"><path d="M 0.0117188 308 L 49.894531 308 L 49.894531 414 L 0.0117188 414 Z M 0.0117188 308 " clip-rule="nonzero"/></clipPath><clipPath id="74d19300bb"><path d="M 83 284.070312 L 105 284.070312 L 105 306 L 83 306 Z M 83 284.070312 " clip-rule="nonzero"/></clipPath><clipPath id="5232a8da8a"><path d="M 69.207031 307 L 119.09375 307 L 119.09375 413 L 69.207031 413 Z M 69.207031 307 " clip-rule="nonzero"/></clipPath><clipPath id="b1917d359a"><path d="M 152 284.734375 L 175 284.734375 L 175 307 L 152 307 Z M 152 284.734375 " clip-rule="nonzero"/></clipPath><clipPath id="8e866440a4"><path d="M 138.21875 308 L 188.101562 308 L 188.101562 414 L 138.21875 414 Z M 138.21875 308 " clip-rule="nonzero"/></clipPath><clipPath id="0079feb802"><path d="M 221 284.734375 L 244 284.734375 L 244 307 L 221 307 Z M 221 284.734375 " clip-rule="nonzero"/></clipPath><clipPath id="7cf60472c6"><path d="M 207.226562 308 L 257.109375 308 L 257.109375 414 L 207.226562 414 Z M 207.226562 308 " clip-rule="nonzero"/></clipPath><clipPath id="d3c4b71c7a"><path d="M 290 284.734375 L 313 284.734375 L 313 307 L 290 307 Z M 290 284.734375 " clip-rule="nonzero"/></clipPath><clipPath id="90faa283b2"><path d="M 276.234375 308 L 326.117188 308 L 326.117188 414 L 276.234375 414 Z M 276.234375 308 " clip-rule="nonzero"/></clipPath><clipPath id="b23f61aa29"><path d="M 359 284.070312 L 382 284.070312 L 382 306 L 359 306 Z M 359 284.070312 " clip-rule="nonzero"/></clipPath><clipPath id="15fcfa2273"><path d="M 345.246094 307 L 395.128906 307 L 395.128906 413 L 345.246094 413 Z M 345.246094 307 " clip-rule="nonzero"/></clipPath><clipPath id="983ce2b937"><path d="M 428 284.070312 L 451 284.070312 L 451 306 L 428 306 Z M 428 284.070312 " clip-rule="nonzero"/></clipPath><clipPath id="5291296d6d"><path d="M 414.253906 307 L 464.136719 307 L 464.136719 413 L 414.253906 413 Z M 414.253906 307 " clip-rule="nonzero"/></clipPath><clipPath id="41931ef4d9"><path d="M 497 284.070312 L 520 284.070312 L 520 306 L 497 306 Z M 497 284.070312 " clip-rule="nonzero"/></clipPath><clipPath id="8bf51cc40a"><path d="M 483.261719 307 L 533.144531 307 L 533.144531 413 L 483.261719 413 Z M 483.261719 307 " clip-rule="nonzero"/></clipPath><clipPath id="5a9d43baef"><path d="M 15 426.710938 L 37 426.710938 L 37 449 L 15 449 Z M 15 426.710938 " clip-rule="nonzero"/></clipPath><clipPath id="cbc24563a5"><path d="M 1.050781 450 L 50.933594 450 L 50.933594 556 L 1.050781 556 Z M 1.050781 450 " clip-rule="nonzero"/></clipPath><clipPath id="d01f884cb3"><path d="M 84 426.046875 L 107 426.046875 L 107 448 L 84 448 Z M 84 426.046875 " clip-rule="nonzero"/></clipPath><clipPath id="6bd7f326ea"><path d="M 70.25 449 L 120.132812 449 L 120.132812 555 L 70.25 555 Z M 70.25 449 " clip-rule="nonzero"/></clipPath><clipPath id="b471abbc1d"><path d="M 153 426.710938 L 176 426.710938 L 176 449 L 153 449 Z M 153 426.710938 " clip-rule="nonzero"/></clipPath><clipPath id="3ab0443454"><path d="M 139.257812 450 L 189.140625 450 L 189.140625 556 L 139.257812 556 Z M 139.257812 450 " clip-rule="nonzero"/></clipPath><clipPath id="7d3a6d2de6"><path d="M 222 426.710938 L 245 426.710938 L 245 449 L 222 449 Z M 222 426.710938 " clip-rule="nonzero"/></clipPath><clipPath id="ff7d9eecef"><path d="M 208.265625 450 L 258.152344 450 L 258.152344 556 L 208.265625 556 Z M 208.265625 450 " clip-rule="nonzero"/></clipPath><clipPath id="cb0aac7015"><path d="M 291 426.710938 L 314 426.710938 L 314 449 L 291 449 Z M 291 426.710938 " clip-rule="nonzero"/></clipPath><clipPath id="368a4a4a72"><path d="M 277.277344 450 L 327.160156 450 L 327.160156 556 L 277.277344 556 Z M 277.277344 450 " clip-rule="nonzero"/></clipPath><clipPath id="c5fee429c7"><path d="M 360 426.046875 L 383 426.046875 L 383 448 L 360 448 Z M 360 426.046875 " clip-rule="nonzero"/></clipPath><clipPath id="2c8ba02587"><path d="M 346.285156 449 L 396.167969 449 L 396.167969 555 L 346.285156 555 Z M 346.285156 449 " clip-rule="nonzero"/></clipPath><clipPath id="895c1582b2"><path d="M 429 426.046875 L 452 426.046875 L 452 448 L 429 448 Z M 429 426.046875 " clip-rule="nonzero"/></clipPath><clipPath id="f0a1182955"><path d="M 415.292969 449 L 465.179688 449 L 465.179688 555 L 415.292969 555 Z M 415.292969 449 " clip-rule="nonzero"/></clipPath><clipPath id="998c812fbb"><path d="M 498 426.046875 L 521 426.046875 L 521 448 L 498 448 Z M 498 426.046875 " clip-rule="nonzero"/></clipPath><clipPath id="442fc5b932"><path d="M 484.304688 449 L 534.1875 449 L 534.1875 555 L 484.304688 555 Z M 484.304688 449 " clip-rule="nonzero"/></clipPath><clipPath id="19176ef620"><path d="M 567 0.664062 L 590 0.664062 L 590 23 L 567 23 Z M 567 0.664062 " clip-rule="nonzero"/></clipPath><clipPath id="1784f02085"><path d="M 553.296875 24 L 603.183594 24 L 603.183594 130 L 553.296875 130 Z M 553.296875 24 " clip-rule="nonzero"/></clipPath><clipPath id="96c0c8dd07"><path d="M 566 143.03125 L 589 143.03125 L 589 165 L 566 165 Z M 566 143.03125 " clip-rule="nonzero"/></clipPath><clipPath id="d59fdd5f02"><path d="M 552.257812 166 L 602.140625 166 L 602.140625 272 L 552.257812 272 Z M 552.257812 166 " clip-rule="nonzero"/></clipPath><clipPath id="054b291b26"><path d="M 566 284.734375 L 589 284.734375 L 589 307 L 566 307 Z M 566 284.734375 " clip-rule="nonzero"/></clipPath><clipPath id="5808896220"><path d="M 552.257812 308 L 602.140625 308 L 602.140625 414 L 552.257812 414 Z M 552.257812 308 " clip-rule="nonzero"/></clipPath><clipPath id="15d03b4139"><path d="M 567 426.710938 L 590 426.710938 L 590 449 L 567 449 Z M 567 426.710938 " clip-rule="nonzero"/></clipPath><clipPath id="3ffa4b4528"><path d="M 553.296875 450 L 603.183594 450 L 603.183594 556 L 553.296875 556 Z M 553.296875 450 " clip-rule="nonzero"/></clipPath></defs><g clip-path="url(#0c741bb4d4)"><path fill="#2252b2" d="M 26.148438 22.0625 C 32.054688 22.0625 36.839844 17.273438 36.839844 11.371094 C 36.839844 5.464844 32.054688 0.679688 26.148438 0.679688 C 20.246094 0.679688 15.460938 5.464844 15.460938 11.371094 C 15.460938 17.273438 20.246094 22.0625 26.148438 22.0625 Z M 26.148438 22.0625 " fill-opacity="1" fill-rule="nonzero"/></g><g clip-path="url(#d85eac6d11)"><path fill="#2252b2" d="M 14.710938 24.421875 C 7.140625 24.421875 1.050781 30.59375 1.050781 38.296875 L 1.050781 71.121094 C 1.050781 77.5 10.390625 77.5 10.390625 71.121094 L 10.390625 41.105469 L 12.601562 41.105469 L 12.601562 123.289062 C 12.601562 131.820312 25.035156 131.566406 25.035156 123.289062 L 25.035156 75.582031 L 27.179688 75.582031 L 27.179688 123.289062 C 27.179688 131.566406 39.683594 131.820312 39.683594 123.289062 L 39.683594 41.105469 L 41.84375 41.105469 L 41.84375 71.121094 C 41.84375 77.550781 51.132812 77.550781 51.117188 71.121094 L 51.117188 38.492188 C 51.117188 31.394531 45.601562 24.4375 37.289062 24.4375 Z M 14.710938 24.421875 " fill-opacity="1" fill-rule="nonzero"/></g><path fill="#2252b2" d="M 95.347656 21.398438 C 101.25 21.398438 106.039062 16.609375 106.039062 10.707031 C 106.039062 4.804688 101.25 0.015625 95.347656 0.015625 C 89.445312 0.015625 84.65625 4.804688 84.65625 10.707031 C 84.65625 16.609375 89.445312 21.398438 95.347656 21.398438 Z M 95.347656 21.398438 " fill-opacity="1" fill-rule="nonzero"/><g clip-path="url(#eb3ec30d72)"><path fill="#2252b2" d="M 83.90625 23.757812 C 76.335938 23.757812 70.25 29.929688 70.25 37.632812 L 70.25 70.457031 C 70.25 76.835938 79.589844 76.835938 79.589844 70.457031 L 79.589844 40.445312 L 81.800781 40.445312 L 81.800781 122.625 C 81.800781 131.15625 94.234375 130.90625 94.234375 122.625 L 94.234375 74.917969 L 96.378906 74.917969 L 96.378906 122.625 C 96.378906 130.90625 108.882812 131.15625 108.882812 122.625 L 108.882812 40.445312 L 111.039062 40.445312 L 111.039062 70.457031 C 111.039062 76.886719 120.332031 76.886719 120.3125 70.457031 L 120.3125 37.832031 C 120.3125 30.730469 114.800781 23.773438 106.488281 23.773438 Z M 83.90625 23.757812 " fill-opacity="1" fill-rule="nonzero"/></g><g clip-path="url(#7c3b7238c2)"><path fill="#2252b2" d="M 164.355469 22.0625 C 170.261719 22.0625 175.046875 17.273438 175.046875 11.371094 C 175.046875 5.464844 170.261719 0.679688 164.355469 0.679688 C 158.453125 0.679688 153.667969 5.464844 153.667969 11.371094 C 153.667969 17.273438 158.453125 22.0625 164.355469 22.0625 Z M 164.355469 22.0625 " fill-opacity="1" fill-rule="nonzero"/></g><g clip-path="url(#0e31b62c68)"><path fill="#2252b2" d="M 152.917969 24.421875 C 145.347656 24.421875 139.257812 30.59375 139.257812 38.296875 L 139.257812 71.121094 C 139.257812 77.5 148.597656 77.5 148.597656 71.121094 L 148.597656 41.105469 L 150.808594 41.105469 L 150.808594 123.289062 C 150.808594 131.820312 163.246094 131.566406 163.246094 123.289062 L 163.246094 75.582031 L 165.386719 75.582031 L 165.386719 123.289062 C 165.386719 131.566406 177.890625 131.820312 177.890625 123.289062 L 177.890625 41.105469 L 180.050781 41.105469 L 180.050781 71.121094 C 180.050781 77.550781 189.339844 77.550781 189.324219 71.121094 L 189.324219 38.492188 C 189.324219 31.394531 183.808594 24.4375 175.496094 24.4375 Z M 152.917969 24.421875 " fill-opacity="1" fill-rule="nonzero"/></g><g clip-path="url(#c34975e2d8)"><path fill="#2252b2" d="M 233.367188 22.0625 C 239.269531 22.0625 244.054688 17.273438 244.054688 11.371094 C 244.054688 5.464844 239.269531 0.679688 233.367188 0.679688 C 227.460938 0.679688 222.675781 5.464844 222.675781 11.371094 C 222.675781 17.273438 227.460938 22.0625 233.367188 22.0625 Z M 233.367188 22.0625 " fill-opacity="1" fill-rule="nonzero"/></g><g clip-path="url(#08431e28da)"><path fill="#2252b2" d="M 221.925781 24.421875 C 214.355469 24.421875 208.265625 30.59375 208.265625 38.296875 L 208.265625 71.121094 C 208.265625 77.5 217.605469 77.5 217.605469 71.121094 L 217.605469 41.105469 L 219.816406 41.105469 L 219.816406 123.289062 C 219.816406 131.820312 232.253906 131.566406 232.253906 123.289062 L 232.253906 75.582031 L 234.394531 75.582031 L 234.394531 123.289062 C 234.394531 131.566406 246.898438 131.820312 246.898438 123.289062 L 246.898438 41.105469 L 249.058594 41.105469 L 249.058594 71.121094 C 249.058594 77.550781 258.347656 77.550781 258.332031 71.121094 L 258.332031 38.492188 C 258.332031 31.394531 252.816406 24.4375 244.503906 24.4375 Z M 221.925781 24.421875 " fill-opacity="1" fill-rule="nonzero"/></g><g clip-path="url(#011da9dd76)"><path fill="#2252b2" d="M 302.375 22.0625 C 308.277344 22.0625 313.066406 17.273438 313.066406 11.371094 C 313.066406 5.464844 308.277344 0.679688 302.375 0.679688 C 296.472656 0.679688 291.683594 5.464844 291.683594 11.371094 C 291.683594 17.273438 296.472656 22.0625 302.375 22.0625 Z M 302.375 22.0625 " fill-opacity="1" fill-rule="nonzero"/></g><g clip-path="url(#c5094ebe15)"><path fill="#2252b2" d="M 290.933594 24.421875 C 283.363281 24.421875 277.277344 30.59375 277.277344 38.296875 L 277.277344 71.121094 C 277.277344 77.5 286.617188 77.5 286.617188 71.121094 L 286.617188 41.105469 L 288.824219 41.105469 L 288.824219 123.289062 C 288.824219 131.820312 301.261719 131.566406 301.261719 123.289062 L 301.261719 75.582031 L 303.402344 75.582031 L 303.402344 123.289062 C 303.402344 131.566406 315.910156 131.820312 315.910156 123.289062 L 315.910156 41.105469 L 318.066406 41.105469 L 318.066406 71.121094 C 318.066406 77.550781 327.359375 77.550781 327.339844 71.121094 L 327.339844 38.492188 C 327.339844 31.394531 321.828125 24.4375 313.515625 24.4375 Z M 290.933594 24.421875 " fill-opacity="1" fill-rule="nonzero"/></g><path fill="#2394e0" d="M 371.382812 21.398438 C 377.289062 21.398438 382.074219 16.609375 382.074219 10.707031 C 382.074219 4.804688 377.289062 0.015625 371.382812 0.015625 C 365.480469 0.015625 360.695312 4.804688 360.695312 10.707031 C 360.695312 16.609375 365.480469 21.398438 371.382812 21.398438 Z M 371.382812 21.398438 " fill-opacity="1" fill-rule="nonzero"/><g clip-path="url(#3ab3d5f20d)"><path fill="#2394e0" d="M 359.945312 23.757812 C 352.375 23.757812 346.285156 29.929688 346.285156 37.632812 L 346.285156 70.457031 C 346.285156 76.835938 355.625 76.835938 355.625 70.457031 L 355.625 40.445312 L 357.835938 40.445312 L 357.835938 122.625 C 357.835938 131.15625 370.269531 130.90625 370.269531 122.625 L 370.269531 74.917969 L 372.414062 74.917969 L 372.414062 122.625 C 372.414062 130.90625 384.917969 131.15625 384.917969 122.625 L 384.917969 40.445312 L 387.078125 40.445312 L 387.078125 70.457031 C 387.078125 76.886719 396.367188 76.886719 396.351562 70.457031 L 396.351562 37.832031 C 396.351562 30.730469 390.835938 23.773438 382.523438 23.773438 Z M 359.945312 23.757812 " fill-opacity="1" fill-rule="nonzero"/></g><path fill="#2252b2" d="M 440.394531 21.398438 C 446.296875 21.398438 451.082031 16.609375 451.082031 10.707031 C 451.082031 4.804688 446.296875 0.015625 440.394531 0.015625 C 434.488281 0.015625 429.703125 4.804688 429.703125 10.707031 C 429.703125 16.609375 434.488281 21.398438 440.394531 21.398438 Z M 440.394531 21.398438 " fill-opacity="1" fill-rule="nonzero"/><g clip-path="url(#fe6f2fb6aa)"><path fill="#2252b2" d="M 428.953125 23.757812 C 421.382812 23.757812 415.292969 29.929688 415.292969 37.632812 L 415.292969 70.457031 C 415.292969 76.835938 424.632812 76.835938 424.632812 70.457031 L 424.632812 40.445312 L 426.84375 40.445312 L 426.84375 122.625 C 426.84375 131.15625 439.28125 130.90625 439.28125 122.625 L 439.28125 74.917969 L 441.421875 74.917969 L 441.421875 122.625 C 441.421875 130.90625 453.925781 131.15625 453.925781 122.625 L 453.925781 40.445312 L 456.085938 40.445312 L 456.085938 70.457031 C 456.085938 76.886719 465.375 76.886719 465.359375 70.457031 L 465.359375 37.832031 C 465.359375 30.730469 459.84375 23.773438 451.53125 23.773438 Z M 428.953125 23.757812 " fill-opacity="1" fill-rule="nonzero"/></g><path fill="#2252b2" d="M 509.402344 21.398438 C 515.304688 21.398438 520.09375 16.609375 520.09375 10.707031 C 520.09375 4.804688 515.304688 0.015625 509.402344 0.015625 C 503.496094 0.015625 498.710938 4.804688 498.710938 10.707031 C 498.710938 16.609375 503.496094 21.398438 509.402344 21.398438 Z M 509.402344 21.398438 " fill-opacity="1" fill-rule="nonzero"/><g clip-path="url(#b750c3390a)"><path fill="#2252b2" d="M 497.960938 23.757812 C 490.390625 23.757812 484.304688 29.929688 484.304688 37.632812 L 484.304688 70.457031 C 484.304688 76.835938 493.640625 76.835938 493.640625 70.457031 L 493.640625 40.445312 L 495.851562 40.445312 L 495.851562 122.625 C 495.851562 131.15625 508.289062 130.90625 508.289062 122.625 L 508.289062 74.917969 L 510.429688 74.917969 L 510.429688 122.625 C 510.429688 130.90625 522.9375 131.15625 522.9375 122.625 L 522.9375 40.445312 L 525.09375 40.445312 L 525.09375 70.457031 C 525.09375 76.886719 534.386719 76.886719 534.367188 70.457031 L 534.367188 37.832031 C 534.367188 30.730469 528.855469 23.773438 520.542969 23.773438 Z M 497.960938 23.757812 " fill-opacity="1" fill-rule="nonzero"/></g><g clip-path="url(#12f99791a3)"><path fill="#2252b2" d="M 25.109375 164.429688 C 31.011719 164.429688 35.800781 159.640625 35.800781 153.738281 C 35.800781 147.832031 31.011719 143.046875 25.109375 143.046875 C 19.203125 143.046875 14.417969 147.832031 14.417969 153.738281 C 14.417969 159.640625 19.203125 164.429688 25.109375 164.429688 Z M 25.109375 164.429688 " fill-opacity="1" fill-rule="nonzero"/></g><g clip-path="url(#3d54188e44)"><path fill="#2252b2" d="M 13.667969 166.789062 C 6.097656 166.789062 0.0117188 172.960938 0.0117188 180.664062 L 0.0117188 213.488281 C 0.0117188 219.867188 9.347656 219.867188 9.347656 213.488281 L 9.347656 183.472656 L 11.558594 183.472656 L 11.558594 265.65625 C 11.558594 274.1875 23.996094 273.9375 23.996094 265.65625 L 23.996094 217.949219 L 26.136719 217.949219 L 26.136719 265.65625 C 26.136719 273.9375 38.640625 274.1875 38.640625 265.65625 L 38.640625 183.472656 L 40.800781 183.472656 L 40.800781 213.488281 C 40.800781 219.917969 50.09375 219.917969 50.074219 213.488281 L 50.074219 180.863281 C 50.074219 173.761719 44.5625 166.804688 36.25 166.804688 Z M 13.667969 166.789062 " fill-opacity="1" fill-rule="nonzero"/></g><g clip-path="url(#4348f6aa71)"><path fill="#2252b2" d="M 94.308594 163.765625 C 100.210938 163.765625 104.996094 158.976562 104.996094 153.074219 C 104.996094 147.171875 100.210938 142.382812 94.308594 142.382812 C 88.402344 142.382812 83.617188 147.171875 83.617188 153.074219 C 83.617188 158.976562 88.402344 163.765625 94.308594 163.765625 Z M 94.308594 163.765625 " fill-opacity="1" fill-rule="nonzero"/></g><g clip-path="url(#071f19688d)"><path fill="#2252b2" d="M 82.867188 166.125 C 75.296875 166.125 69.207031 172.296875 69.207031 180 L 69.207031 212.824219 C 69.207031 219.203125 78.546875 219.203125 78.546875 212.824219 L 78.546875 182.8125 L 80.757812 182.8125 L 80.757812 264.992188 C 80.757812 273.523438 93.195312 273.273438 93.195312 264.992188 L 93.195312 217.289062 L 95.335938 217.289062 L 95.335938 264.992188 C 95.335938 273.273438 107.839844 273.523438 107.839844 264.992188 L 107.839844 182.8125 L 110 182.8125 L 110 212.824219 C 110 219.253906 119.289062 219.253906 119.273438 212.824219 L 119.273438 180.199219 C 119.273438 173.097656 113.757812 166.140625 105.445312 166.140625 L 82.867188 166.128906 Z M 82.867188 166.125 " fill-opacity="1" fill-rule="nonzero"/></g><g clip-path="url(#81659225a8)"><path fill="#2252b2" d="M 163.316406 164.429688 C 169.21875 164.429688 174.007812 159.640625 174.007812 153.738281 C 174.007812 147.832031 169.21875 143.046875 163.316406 143.046875 C 157.410156 143.046875 152.625 147.832031 152.625 153.738281 C 152.625 159.640625 157.410156 164.429688 163.316406 164.429688 Z M 163.316406 164.429688 " fill-opacity="1" fill-rule="nonzero"/></g><g clip-path="url(#54b3aa091c)"><path fill="#2252b2" d="M 151.875 166.789062 C 144.304688 166.789062 138.21875 172.960938 138.21875 180.664062 L 138.21875 213.488281 C 138.21875 219.867188 147.554688 219.867188 147.554688 213.488281 L 147.554688 183.472656 L 149.765625 183.472656 L 149.765625 265.65625 C 149.765625 274.1875 162.203125 273.9375 162.203125 265.65625 L 162.203125 217.949219 L 164.34375 217.949219 L 164.34375 265.65625 C 164.34375 273.9375 176.851562 274.1875 176.851562 265.65625 L 176.851562 183.472656 L 179.007812 183.472656 L 179.007812 213.488281 C 179.007812 219.917969 188.300781 219.917969 188.28125 213.488281 L 188.28125 180.863281 C 188.28125 173.761719 182.769531 166.804688 174.457031 166.804688 Z M 151.875 166.789062 " fill-opacity="1" fill-rule="nonzero"/></g><g clip-path="url(#ebb5f0ae86)"><path fill="#2252b2" d="M 232.324219 164.429688 C 238.230469 164.429688 243.015625 159.640625 243.015625 153.738281 C 243.015625 147.832031 238.230469 143.046875 232.324219 143.046875 C 226.421875 143.046875 221.636719 147.832031 221.636719 153.738281 C 221.636719 159.640625 226.421875 164.429688 232.324219 164.429688 Z M 232.324219 164.429688 " fill-opacity="1" fill-rule="nonzero"/></g><g clip-path="url(#ff425913d2)"><path fill="#2252b2" d="M 220.886719 166.789062 C 213.316406 166.789062 207.226562 172.960938 207.226562 180.664062 L 207.226562 213.488281 C 207.226562 219.867188 216.566406 219.867188 216.566406 213.488281 L 216.566406 183.472656 L 218.777344 183.472656 L 218.777344 265.65625 C 218.777344 274.1875 231.210938 273.9375 231.210938 265.65625 L 231.210938 217.949219 L 233.355469 217.949219 L 233.355469 265.65625 C 233.355469 273.9375 245.859375 274.1875 245.859375 265.65625 L 245.859375 183.472656 L 248.019531 183.472656 L 248.019531 213.488281 C 248.019531 219.917969 257.308594 219.917969 257.292969 213.488281 L 257.292969 180.863281 C 257.292969 173.761719 251.777344 166.804688 243.464844 166.804688 Z M 220.886719 166.789062 " fill-opacity="1" fill-rule="nonzero"/></g><g clip-path="url(#aaa9547eae)"><path fill="#2252b2" d="M 301.335938 164.429688 C 307.238281 164.429688 312.023438 159.640625 312.023438 153.738281 C 312.023438 147.832031 307.238281 143.046875 301.335938 143.046875 C 295.429688 143.046875 290.644531 147.832031 290.644531 153.738281 C 290.644531 159.640625 295.429688 164.429688 301.335938 164.429688 Z M 301.335938 164.429688 " fill-opacity="1" fill-rule="nonzero"/></g><g clip-path="url(#35c4639b60)"><path fill="#2252b2" d="M 289.894531 166.789062 C 282.324219 166.789062 276.234375 172.960938 276.234375 180.664062 L 276.234375 213.488281 C 276.234375 219.867188 285.574219 219.867188 285.574219 213.488281 L 285.574219 183.472656 L 287.785156 183.472656 L 287.785156 265.65625 C 287.785156 274.1875 300.222656 273.9375 300.222656 265.65625 L 300.222656 217.949219 L 302.363281 217.949219 L 302.363281 265.65625 C 302.363281 273.9375 314.867188 274.1875 314.867188 265.65625 L 314.867188 183.472656 L 317.027344 183.472656 L 317.027344 213.488281 C 317.027344 219.917969 326.316406 219.917969 326.300781 213.488281 L 326.300781 180.863281 C 326.300781 173.761719 320.785156 166.804688 312.472656 166.804688 Z M 289.894531 166.789062 " fill-opacity="1" fill-rule="nonzero"/></g><g clip-path="url(#65e40ddff0)"><path fill="#2252b2" d="M 370.34375 163.765625 C 376.246094 163.765625 381.035156 158.976562 381.035156 153.074219 C 381.035156 147.171875 376.246094 142.382812 370.34375 142.382812 C 364.4375 142.382812 359.652344 147.171875 359.652344 153.074219 C 359.652344 158.976562 364.4375 163.765625 370.34375 163.765625 Z M 370.34375 163.765625 " fill-opacity="1" fill-rule="nonzero"/></g><g clip-path="url(#198096ffe5)"><path fill="#2252b2" d="M 358.902344 166.125 C 351.332031 166.125 345.246094 172.296875 345.246094 180 L 345.246094 212.824219 C 345.246094 219.203125 354.582031 219.203125 354.582031 212.824219 L 354.582031 182.8125 L 356.792969 182.8125 L 356.792969 264.992188 C 356.792969 273.523438 369.230469 273.273438 369.230469 264.992188 L 369.230469 217.289062 L 371.371094 217.289062 L 371.371094 264.992188 C 371.371094 273.273438 383.875 273.523438 383.875 264.992188 L 383.875 182.8125 L 386.035156 182.8125 L 386.035156 212.824219 C 386.035156 219.253906 395.328125 219.253906 395.308594 212.824219 L 395.308594 180.199219 C 395.308594 173.097656 389.796875 166.140625 381.484375 166.140625 L 358.902344 166.128906 Z M 358.902344 166.125 " fill-opacity="1" fill-rule="nonzero"/></g><g clip-path="url(#1214f62d56)"><path fill="#2252b2" d="M 439.351562 163.765625 C 445.253906 163.765625 450.042969 158.976562 450.042969 153.074219 C 450.042969 147.171875 445.253906 142.382812 439.351562 142.382812 C 433.449219 142.382812 428.660156 147.171875 428.660156 153.074219 C 428.660156 158.976562 433.449219 163.765625 439.351562 163.765625 Z M 439.351562 163.765625 " fill-opacity="1" fill-rule="nonzero"/></g><g clip-path="url(#568067c292)"><path fill="#2252b2" d="M 427.910156 166.125 C 420.339844 166.125 414.253906 172.296875 414.253906 180 L 414.253906 212.824219 C 414.253906 219.203125 423.59375 219.203125 423.59375 212.824219 L 423.59375 182.8125 L 425.804688 182.8125 L 425.804688 264.992188 C 425.804688 273.523438 438.238281 273.273438 438.238281 264.992188 L 438.238281 217.289062 L 440.382812 217.289062 L 440.382812 264.992188 C 440.382812 273.273438 452.886719 273.523438 452.886719 264.992188 L 452.886719 182.8125 L 455.042969 182.8125 L 455.042969 212.824219 C 455.042969 219.253906 464.335938 219.253906 464.320312 212.824219 L 464.320312 180.199219 C 464.320312 173.097656 458.804688 166.140625 450.492188 166.140625 L 427.910156 166.128906 Z M 427.910156 166.125 " fill-opacity="1" fill-rule="nonzero"/></g><g clip-path="url(#ce33616e37)"><path fill="#2394e0" d="M 508.359375 163.765625 C 514.265625 163.765625 519.050781 158.976562 519.050781 153.074219 C 519.050781 147.171875 514.265625 142.382812 508.359375 142.382812 C 502.457031 142.382812 497.671875 147.171875 497.671875 153.074219 C 497.671875 158.976562 502.457031 163.765625 508.359375 163.765625 Z M 508.359375 163.765625 " fill-opacity="1" fill-rule="nonzero"/></g><g clip-path="url(#c238d45ce6)"><path fill="#2394e0" d="M 496.921875 166.125 C 489.351562 166.125 483.261719 172.296875 483.261719 180 L 483.261719 212.824219 C 483.261719 219.203125 492.601562 219.203125 492.601562 212.824219 L 492.601562 182.8125 L 494.8125 182.8125 L 494.8125 264.992188 C 494.8125 273.523438 507.25 273.273438 507.25 264.992188 L 507.25 217.289062 L 509.390625 217.289062 L 509.390625 264.992188 C 509.390625 273.273438 521.894531 273.523438 521.894531 264.992188 L 521.894531 182.8125 L 524.054688 182.8125 L 524.054688 212.824219 C 524.054688 219.253906 533.34375 219.253906 533.328125 212.824219 L 533.328125 180.199219 C 533.328125 173.097656 527.8125 166.140625 519.5 166.140625 L 496.921875 166.128906 Z M 496.921875 166.125 " fill-opacity="1" fill-rule="nonzero"/></g><g clip-path="url(#83a18931a6)"><path fill="#2252b2" d="M 25.109375 306.132812 C 31.011719 306.132812 35.800781 301.347656 35.800781 295.441406 C 35.800781 289.539062 31.011719 284.75 25.109375 284.75 C 19.203125 284.75 14.417969 289.539062 14.417969 295.441406 C 14.417969 301.347656 19.203125 306.132812 25.109375 306.132812 Z M 25.109375 306.132812 " fill-opacity="1" fill-rule="nonzero"/></g><g clip-path="url(#e3dccef297)"><path fill="#2252b2" d="M 13.667969 308.492188 C 6.097656 308.492188 0.0117188 314.667969 0.0117188 322.367188 L 0.0117188 355.191406 C 0.0117188 361.574219 9.347656 361.574219 9.347656 355.191406 L 9.347656 325.179688 L 11.558594 325.179688 L 11.558594 407.359375 C 11.558594 415.890625 23.996094 415.640625 23.996094 407.359375 L 23.996094 359.65625 L 26.136719 359.65625 L 26.136719 407.359375 C 26.136719 415.640625 38.640625 415.890625 38.640625 407.359375 L 38.640625 325.179688 L 40.800781 325.179688 L 40.800781 355.191406 C 40.800781 361.621094 50.09375 361.621094 50.074219 355.191406 L 50.074219 322.566406 C 50.074219 315.464844 44.5625 308.507812 36.25 308.507812 L 13.667969 308.496094 Z M 13.667969 308.492188 " fill-opacity="1" fill-rule="nonzero"/></g><g clip-path="url(#74d19300bb)"><path fill="#2252b2" d="M 94.308594 305.46875 C 100.210938 305.46875 104.996094 300.683594 104.996094 294.777344 C 104.996094 288.875 100.210938 284.089844 94.308594 284.089844 C 88.402344 284.089844 83.617188 288.875 83.617188 294.777344 C 83.617188 300.683594 88.402344 305.46875 94.308594 305.46875 Z M 94.308594 305.46875 " fill-opacity="1" fill-rule="nonzero"/></g><g clip-path="url(#5232a8da8a)"><path fill="#2252b2" d="M 82.867188 307.828125 C 75.296875 307.828125 69.207031 314.003906 69.207031 321.703125 L 69.207031 354.527344 C 69.207031 360.910156 78.546875 360.910156 78.546875 354.527344 L 78.546875 324.515625 L 80.757812 324.515625 L 80.757812 406.695312 C 80.757812 415.226562 93.195312 414.976562 93.195312 406.695312 L 93.195312 358.992188 L 95.335938 358.992188 L 95.335938 406.695312 C 95.335938 414.976562 107.839844 415.226562 107.839844 406.695312 L 107.839844 324.515625 L 110 324.515625 L 110 354.527344 C 110 360.957031 119.289062 360.957031 119.273438 354.527344 L 119.273438 321.902344 C 119.273438 314.800781 113.757812 307.847656 105.445312 307.847656 L 82.867188 307.832031 Z M 82.867188 307.828125 " fill-opacity="1" fill-rule="nonzero"/></g><g clip-path="url(#b1917d359a)"><path fill="#04caea" d="M 163.316406 306.132812 C 169.21875 306.132812 174.007812 301.347656 174.007812 295.441406 C 174.007812 289.539062 169.21875 284.75 163.316406 284.75 C 157.410156 284.75 152.625 289.539062 152.625 295.441406 C 152.625 301.347656 157.410156 306.132812 163.316406 306.132812 Z M 163.316406 306.132812 " fill-opacity="1" fill-rule="nonzero"/></g><g clip-path="url(#8e866440a4)"><path fill="#04caea" d="M 151.875 308.492188 C 144.304688 308.492188 138.21875 314.667969 138.21875 322.367188 L 138.21875 355.191406 C 138.21875 361.574219 147.554688 361.574219 147.554688 355.191406 L 147.554688 325.179688 L 149.765625 325.179688 L 149.765625 407.359375 C 149.765625 415.890625 162.203125 415.640625 162.203125 407.359375 L 162.203125 359.65625 L 164.34375 359.65625 L 164.34375 407.359375 C 164.34375 415.640625 176.851562 415.890625 176.851562 407.359375 L 176.851562 325.179688 L 179.007812 325.179688 L 179.007812 355.191406 C 179.007812 361.621094 188.300781 361.621094 188.28125 355.191406 L 188.28125 322.566406 C 188.28125 315.464844 182.769531 308.507812 174.457031 308.507812 L 151.875 308.496094 Z M 151.875 308.492188 " fill-opacity="1" fill-rule="nonzero"/></g><g clip-path="url(#0079feb802)"><path fill="#2394e0" d="M 232.324219 306.132812 C 238.230469 306.132812 243.015625 301.347656 243.015625 295.441406 C 243.015625 289.539062 238.230469 284.75 232.324219 284.75 C 226.421875 284.75 221.636719 289.539062 221.636719 295.441406 C 221.636719 301.347656 226.421875 306.132812 232.324219 306.132812 Z M 232.324219 306.132812 " fill-opacity="1" fill-rule="nonzero"/></g><g clip-path="url(#7cf60472c6)"><path fill="#2394e0" d="M 220.886719 308.492188 C 213.316406 308.492188 207.226562 314.667969 207.226562 322.367188 L 207.226562 355.191406 C 207.226562 361.574219 216.566406 361.574219 216.566406 355.191406 L 216.566406 325.179688 L 218.777344 325.179688 L 218.777344 407.359375 C 218.777344 415.890625 231.210938 415.640625 231.210938 407.359375 L 231.210938 359.65625 L 233.355469 359.65625 L 233.355469 407.359375 C 233.355469 415.640625 245.859375 415.890625 245.859375 407.359375 L 245.859375 325.179688 L 248.019531 325.179688 L 248.019531 355.191406 C 248.019531 361.621094 257.308594 361.621094 257.292969 355.191406 L 257.292969 322.566406 C 257.292969 315.464844 251.777344 308.507812 243.464844 308.507812 L 220.886719 308.496094 Z M 220.886719 308.492188 " fill-opacity="1" fill-rule="nonzero"/></g><g clip-path="url(#d3c4b71c7a)"><path fill="#2252b2" d="M 301.335938 306.132812 C 307.238281 306.132812 312.023438 301.347656 312.023438 295.441406 C 312.023438 289.539062 307.238281 284.75 301.335938 284.75 C 295.429688 284.75 290.644531 289.539062 290.644531 295.441406 C 290.644531 301.347656 295.429688 306.132812 301.335938 306.132812 Z M 301.335938 306.132812 " fill-opacity="1" fill-rule="nonzero"/></g><g clip-path="url(#90faa283b2)"><path fill="#2252b2" d="M 289.894531 308.492188 C 282.324219 308.492188 276.234375 314.667969 276.234375 322.367188 L 276.234375 355.191406 C 276.234375 361.574219 285.574219 361.574219 285.574219 355.191406 L 285.574219 325.179688 L 287.785156 325.179688 L 287.785156 407.359375 C 287.785156 415.890625 300.222656 415.640625 300.222656 407.359375 L 300.222656 359.65625 L 302.363281 359.65625 L 302.363281 407.359375 C 302.363281 415.640625 314.867188 415.890625 314.867188 407.359375 L 314.867188 325.179688 L 317.027344 325.179688 L 317.027344 355.191406 C 317.027344 361.621094 326.316406 361.621094 326.300781 355.191406 L 326.300781 322.566406 C 326.300781 315.464844 320.785156 308.507812 312.472656 308.507812 L 289.894531 308.496094 Z M 289.894531 308.492188 " fill-opacity="1" fill-rule="nonzero"/></g><g clip-path="url(#b23f61aa29)"><path fill="#2252b2" d="M 370.34375 305.46875 C 376.246094 305.46875 381.035156 300.683594 381.035156 294.777344 C 381.035156 288.875 376.246094 284.089844 370.34375 284.089844 C 364.4375 284.089844 359.652344 288.875 359.652344 294.777344 C 359.652344 300.683594 364.4375 305.46875 370.34375 305.46875 Z M 370.34375 305.46875 " fill-opacity="1" fill-rule="nonzero"/></g><g clip-path="url(#15fcfa2273)"><path fill="#2252b2" d="M 358.902344 307.828125 C 351.332031 307.828125 345.246094 314.003906 345.246094 321.703125 L 345.246094 354.527344 C 345.246094 360.910156 354.582031 360.910156 354.582031 354.527344 L 354.582031 324.515625 L 356.792969 324.515625 L 356.792969 406.695312 C 356.792969 415.226562 369.230469 414.976562 369.230469 406.695312 L 369.230469 358.992188 L 371.371094 358.992188 L 371.371094 406.695312 C 371.371094 414.976562 383.875 415.226562 383.875 406.695312 L 383.875 324.515625 L 386.035156 324.515625 L 386.035156 354.527344 C 386.035156 360.957031 395.328125 360.957031 395.308594 354.527344 L 395.308594 321.902344 C 395.308594 314.800781 389.796875 307.847656 381.484375 307.847656 L 358.902344 307.832031 Z M 358.902344 307.828125 " fill-opacity="1" fill-rule="nonzero"/></g><g clip-path="url(#983ce2b937)"><path fill="#2252b2" d="M 439.351562 305.46875 C 445.253906 305.46875 450.042969 300.683594 450.042969 294.777344 C 450.042969 288.875 445.253906 284.089844 439.351562 284.089844 C 433.449219 284.089844 428.660156 288.875 428.660156 294.777344 C 428.660156 300.683594 433.449219 305.46875 439.351562 305.46875 Z M 439.351562 305.46875 " fill-opacity="1" fill-rule="nonzero"/></g><g clip-path="url(#5291296d6d)"><path fill="#2252b2" d="M 427.910156 307.828125 C 420.339844 307.828125 414.253906 314.003906 414.253906 321.703125 L 414.253906 354.527344 C 414.253906 360.910156 423.59375 360.910156 423.59375 354.527344 L 423.59375 324.515625 L 425.804688 324.515625 L 425.804688 406.695312 C 425.804688 415.226562 438.238281 414.976562 438.238281 406.695312 L 438.238281 358.992188 L 440.382812 358.992188 L 440.382812 406.695312 C 440.382812 414.976562 452.886719 415.226562 452.886719 406.695312 L 452.886719 324.515625 L 455.042969 324.515625 L 455.042969 354.527344 C 455.042969 360.957031 464.335938 360.957031 464.320312 354.527344 L 464.320312 321.902344 C 464.320312 314.800781 458.804688 307.847656 450.492188 307.847656 L 427.910156 307.832031 Z M 427.910156 307.828125 " fill-opacity="1" fill-rule="nonzero"/></g><g clip-path="url(#41931ef4d9)"><path fill="#2252b2" d="M 508.359375 305.46875 C 514.265625 305.46875 519.050781 300.683594 519.050781 294.777344 C 519.050781 288.875 514.265625 284.089844 508.359375 284.089844 C 502.457031 284.089844 497.671875 288.875 497.671875 294.777344 C 497.671875 300.683594 502.457031 305.46875 508.359375 305.46875 Z M 508.359375 305.46875 " fill-opacity="1" fill-rule="nonzero"/></g><g clip-path="url(#8bf51cc40a)"><path fill="#2252b2" d="M 496.921875 307.828125 C 489.351562 307.828125 483.261719 314.003906 483.261719 321.703125 L 483.261719 354.527344 C 483.261719 360.910156 492.601562 360.910156 492.601562 354.527344 L 492.601562 324.515625 L 494.8125 324.515625 L 494.8125 406.695312 C 494.8125 415.226562 507.25 414.976562 507.25 406.695312 L 507.25 358.992188 L 509.390625 358.992188 L 509.390625 406.695312 C 509.390625 414.976562 521.894531 415.226562 521.894531 406.695312 L 521.894531 324.515625 L 524.054688 324.515625 L 524.054688 354.527344 C 524.054688 360.957031 533.34375 360.957031 533.328125 354.527344 L 533.328125 321.902344 C 533.328125 314.800781 527.8125 307.847656 519.5 307.847656 L 496.921875 307.832031 Z M 496.921875 307.828125 " fill-opacity="1" fill-rule="nonzero"/></g><g clip-path="url(#5a9d43baef)"><path fill="#2252b2" d="M 26.148438 448.109375 C 32.054688 448.109375 36.839844 443.324219 36.839844 437.417969 C 36.839844 431.515625 32.054688 426.726562 26.148438 426.726562 C 20.246094 426.726562 15.460938 431.515625 15.460938 437.417969 C 15.460938 443.324219 20.246094 448.109375 26.148438 448.109375 Z M 26.148438 448.109375 " fill-opacity="1" fill-rule="nonzero"/></g><g clip-path="url(#cbc24563a5)"><path fill="#2252b2" d="M 14.710938 450.46875 C 7.140625 450.46875 1.050781 456.640625 1.050781 464.34375 L 1.050781 497.167969 C 1.050781 503.546875 10.390625 503.546875 10.390625 497.167969 L 10.390625 467.15625 L 12.601562 467.15625 L 12.601562 549.335938 C 12.601562 557.867188 25.035156 557.617188 25.035156 549.335938 L 25.035156 501.632812 L 27.179688 501.632812 L 27.179688 549.335938 C 27.179688 557.617188 39.683594 557.867188 39.683594 549.335938 L 39.683594 467.15625 L 41.84375 467.15625 L 41.84375 497.167969 C 41.84375 503.597656 51.132812 503.597656 51.117188 497.167969 L 51.117188 464.542969 C 51.117188 457.441406 45.601562 450.484375 37.289062 450.484375 L 14.710938 450.472656 Z M 14.710938 450.46875 " fill-opacity="1" fill-rule="nonzero"/></g><g clip-path="url(#d01f884cb3)"><path fill="#2252b2" d="M 95.347656 447.445312 C 101.25 447.445312 106.039062 442.660156 106.039062 436.753906 C 106.039062 430.851562 101.25 426.066406 95.347656 426.066406 C 89.445312 426.066406 84.65625 430.851562 84.65625 436.753906 C 84.65625 442.660156 89.445312 447.445312 95.347656 447.445312 Z M 95.347656 447.445312 " fill-opacity="1" fill-rule="nonzero"/></g><g clip-path="url(#6bd7f326ea)"><path fill="#2252b2" d="M 83.90625 449.804688 C 76.335938 449.804688 70.25 455.980469 70.25 463.679688 L 70.25 496.503906 C 70.25 502.886719 79.589844 502.886719 79.589844 496.503906 L 79.589844 466.492188 L 81.800781 466.492188 L 81.800781 548.671875 C 81.800781 557.203125 94.234375 556.953125 94.234375 548.671875 L 94.234375 500.96875 L 96.378906 500.96875 L 96.378906 548.671875 C 96.378906 556.953125 108.882812 557.203125 108.882812 548.671875 L 108.882812 466.492188 L 111.039062 466.492188 L 111.039062 496.503906 C 111.039062 502.933594 120.332031 502.933594 120.3125 496.503906 L 120.3125 463.878906 C 120.3125 456.777344 114.800781 449.824219 106.488281 449.824219 L 83.90625 449.808594 Z M 83.90625 449.804688 " fill-opacity="1" fill-rule="nonzero"/></g><g clip-path="url(#b471abbc1d)"><path fill="#2252b2" d="M 164.355469 448.109375 C 170.261719 448.109375 175.046875 443.324219 175.046875 437.417969 C 175.046875 431.515625 170.261719 426.726562 164.355469 426.726562 C 158.453125 426.726562 153.667969 431.515625 153.667969 437.417969 C 153.667969 443.324219 158.453125 448.109375 164.355469 448.109375 Z M 164.355469 448.109375 " fill-opacity="1" fill-rule="nonzero"/></g><g clip-path="url(#3ab0443454)"><path fill="#2252b2" d="M 152.917969 450.46875 C 145.347656 450.46875 139.257812 456.640625 139.257812 464.34375 L 139.257812 497.167969 C 139.257812 503.546875 148.597656 503.546875 148.597656 497.167969 L 148.597656 467.15625 L 150.808594 467.15625 L 150.808594 549.335938 C 150.808594 557.867188 163.246094 557.617188 163.246094 549.335938 L 163.246094 501.632812 L 165.386719 501.632812 L 165.386719 549.335938 C 165.386719 557.617188 177.890625 557.867188 177.890625 549.335938 L 177.890625 467.15625 L 180.050781 467.15625 L 180.050781 497.167969 C 180.050781 503.597656 189.339844 503.597656 189.324219 497.167969 L 189.324219 464.542969 C 189.324219 457.441406 183.808594 450.484375 175.496094 450.484375 L 152.917969 450.472656 Z M 152.917969 450.46875 " fill-opacity="1" fill-rule="nonzero"/></g><g clip-path="url(#7d3a6d2de6)"><path fill="#2252b2" d="M 233.367188 448.109375 C 239.269531 448.109375 244.054688 443.324219 244.054688 437.417969 C 244.054688 431.515625 239.269531 426.726562 233.367188 426.726562 C 227.460938 426.726562 222.675781 431.515625 222.675781 437.417969 C 222.675781 443.324219 227.460938 448.109375 233.367188 448.109375 Z M 233.367188 448.109375 " fill-opacity="1" fill-rule="nonzero"/></g><g clip-path="url(#ff7d9eecef)"><path fill="#2252b2" d="M 221.925781 450.46875 C 214.355469 450.46875 208.265625 456.640625 208.265625 464.34375 L 208.265625 497.167969 C 208.265625 503.546875 217.605469 503.546875 217.605469 497.167969 L 217.605469 467.15625 L 219.816406 467.15625 L 219.816406 549.335938 C 219.816406 557.867188 232.253906 557.617188 232.253906 549.335938 L 232.253906 501.632812 L 234.394531 501.632812 L 234.394531 549.335938 C 234.394531 557.617188 246.898438 557.867188 246.898438 549.335938 L 246.898438 467.15625 L 249.058594 467.15625 L 249.058594 497.167969 C 249.058594 503.597656 258.347656 503.597656 258.332031 497.167969 L 258.332031 464.542969 C 258.332031 457.441406 252.816406 450.484375 244.503906 450.484375 L 221.925781 450.472656 Z M 221.925781 450.46875 " fill-opacity="1" fill-rule="nonzero"/></g><g clip-path="url(#cb0aac7015)"><path fill="#2252b2" d="M 302.375 448.109375 C 308.277344 448.109375 313.066406 443.324219 313.066406 437.417969 C 313.066406 431.515625 308.277344 426.726562 302.375 426.726562 C 296.472656 426.726562 291.683594 431.515625 291.683594 437.417969 C 291.683594 443.324219 296.472656 448.109375 302.375 448.109375 Z M 302.375 448.109375 " fill-opacity="1" fill-rule="nonzero"/></g><g clip-path="url(#368a4a4a72)"><path fill="#2252b2" d="M 290.933594 450.46875 C 283.363281 450.46875 277.277344 456.640625 277.277344 464.34375 L 277.277344 497.167969 C 277.277344 503.546875 286.617188 503.546875 286.617188 497.167969 L 286.617188 467.15625 L 288.824219 467.15625 L 288.824219 549.335938 C 288.824219 557.867188 301.261719 557.617188 301.261719 549.335938 L 301.261719 501.632812 L 303.402344 501.632812 L 303.402344 549.335938 C 303.402344 557.617188 315.910156 557.867188 315.910156 549.335938 L 315.910156 467.15625 L 318.066406 467.15625 L 318.066406 497.167969 C 318.066406 503.597656 327.359375 503.597656 327.339844 497.167969 L 327.339844 464.542969 C 327.339844 457.441406 321.828125 450.484375 313.515625 450.484375 L 290.933594 450.472656 Z M 290.933594 450.46875 " fill-opacity="1" fill-rule="nonzero"/></g><g clip-path="url(#c5fee429c7)"><path fill="#2252b2" d="M 371.382812 447.445312 C 377.289062 447.445312 382.074219 442.660156 382.074219 436.753906 C 382.074219 430.851562 377.289062 426.066406 371.382812 426.066406 C 365.480469 426.066406 360.695312 430.851562 360.695312 436.753906 C 360.695312 442.660156 365.480469 447.445312 371.382812 447.445312 Z M 371.382812 447.445312 " fill-opacity="1" fill-rule="nonzero"/></g><g clip-path="url(#2c8ba02587)"><path fill="#2252b2" d="M 359.945312 449.804688 C 352.375 449.804688 346.285156 455.980469 346.285156 463.679688 L 346.285156 496.503906 C 346.285156 502.886719 355.625 502.886719 355.625 496.503906 L 355.625 466.492188 L 357.835938 466.492188 L 357.835938 548.671875 C 357.835938 557.203125 370.269531 556.953125 370.269531 548.671875 L 370.269531 500.96875 L 372.414062 500.96875 L 372.414062 548.671875 C 372.414062 556.953125 384.917969 557.203125 384.917969 548.671875 L 384.917969 466.492188 L 387.078125 466.492188 L 387.078125 496.503906 C 387.078125 502.933594 396.367188 502.933594 396.351562 496.503906 L 396.351562 463.878906 C 396.351562 456.777344 390.835938 449.824219 382.523438 449.824219 L 359.945312 449.808594 Z M 359.945312 449.804688 " fill-opacity="1" fill-rule="nonzero"/></g><g clip-path="url(#895c1582b2)"><path fill="#2394e0" d="M 440.394531 447.445312 C 446.296875 447.445312 451.082031 442.660156 451.082031 436.753906 C 451.082031 430.851562 446.296875 426.066406 440.394531 426.066406 C 434.488281 426.066406 429.703125 430.851562 429.703125 436.753906 C 429.703125 442.660156 434.488281 447.445312 440.394531 447.445312 Z M 440.394531 447.445312 " fill-opacity="1" fill-rule="nonzero"/></g><g clip-path="url(#f0a1182955)"><path fill="#2394e0" d="M 428.953125 449.804688 C 421.382812 449.804688 415.292969 455.980469 415.292969 463.679688 L 415.292969 496.503906 C 415.292969 502.886719 424.632812 502.886719 424.632812 496.503906 L 424.632812 466.492188 L 426.84375 466.492188 L 426.84375 548.671875 C 426.84375 557.203125 439.28125 556.953125 439.28125 548.671875 L 439.28125 500.96875 L 441.421875 500.96875 L 441.421875 548.671875 C 441.421875 556.953125 453.925781 557.203125 453.925781 548.671875 L 453.925781 466.492188 L 456.085938 466.492188 L 456.085938 496.503906 C 456.085938 502.933594 465.375 502.933594 465.359375 496.503906 L 465.359375 463.878906 C 465.359375 456.777344 459.84375 449.824219 451.53125 449.824219 L 428.953125 449.808594 Z M 428.953125 449.804688 " fill-opacity="1" fill-rule="nonzero"/></g><g clip-path="url(#998c812fbb)"><path fill="#2252b2" d="M 509.402344 447.445312 C 515.304688 447.445312 520.09375 442.660156 520.09375 436.753906 C 520.09375 430.851562 515.304688 426.066406 509.402344 426.066406 C 503.496094 426.066406 498.710938 430.851562 498.710938 436.753906 C 498.710938 442.660156 503.496094 447.445312 509.402344 447.445312 Z M 509.402344 447.445312 " fill-opacity="1" fill-rule="nonzero"/></g><g clip-path="url(#442fc5b932)"><path fill="#2252b2" d="M 497.960938 449.804688 C 490.390625 449.804688 484.304688 455.980469 484.304688 463.679688 L 484.304688 496.503906 C 484.304688 502.886719 493.640625 502.886719 493.640625 496.503906 L 493.640625 466.492188 L 495.851562 466.492188 L 495.851562 548.671875 C 495.851562 557.203125 508.289062 556.953125 508.289062 548.671875 L 508.289062 500.96875 L 510.429688 500.96875 L 510.429688 548.671875 C 510.429688 556.953125 522.9375 557.203125 522.9375 548.671875 L 522.9375 466.492188 L 525.09375 466.492188 L 525.09375 496.503906 C 525.09375 502.933594 534.386719 502.933594 534.367188 496.503906 L 534.367188 463.878906 C 534.367188 456.777344 528.855469 449.824219 520.542969 449.824219 L 497.960938 449.808594 Z M 497.960938 449.804688 " fill-opacity="1" fill-rule="nonzero"/></g><g clip-path="url(#19176ef620)"><path fill="#2252b2" d="M 578.398438 22.0625 C 584.300781 22.0625 589.085938 17.273438 589.085938 11.371094 C 589.085938 5.464844 584.300781 0.679688 578.398438 0.679688 C 572.492188 0.679688 567.707031 5.464844 567.707031 11.371094 C 567.707031 17.273438 572.492188 22.0625 578.398438 22.0625 Z M 578.398438 22.0625 " fill-opacity="1" fill-rule="nonzero"/></g><g clip-path="url(#1784f02085)"><path fill="#2252b2" d="M 566.957031 24.421875 C 559.386719 24.421875 553.296875 30.59375 553.296875 38.296875 L 553.296875 71.121094 C 553.296875 77.5 562.636719 77.5 562.636719 71.121094 L 562.636719 41.105469 L 564.847656 41.105469 L 564.847656 123.289062 C 564.847656 131.820312 577.285156 131.566406 577.285156 123.289062 L 577.285156 75.582031 L 579.425781 75.582031 L 579.425781 123.289062 C 579.425781 131.566406 591.929688 131.820312 591.929688 123.289062 L 591.929688 41.105469 L 594.089844 41.105469 L 594.089844 71.121094 C 594.089844 77.550781 603.378906 77.550781 603.363281 71.121094 L 603.363281 38.492188 C 603.363281 31.394531 597.847656 24.4375 589.535156 24.4375 Z M 566.957031 24.421875 " fill-opacity="1" fill-rule="nonzero"/></g><g clip-path="url(#96c0c8dd07)"><path fill="#2252b2" d="M 577.355469 164.429688 C 583.257812 164.429688 588.046875 159.640625 588.046875 153.738281 C 588.046875 147.832031 583.257812 143.046875 577.355469 143.046875 C 571.453125 143.046875 566.664062 147.832031 566.664062 153.738281 C 566.664062 159.640625 571.453125 164.429688 577.355469 164.429688 Z M 577.355469 164.429688 " fill-opacity="1" fill-rule="nonzero"/></g><g clip-path="url(#d59fdd5f02)"><path fill="#2252b2" d="M 565.914062 166.789062 C 558.34375 166.789062 552.257812 172.960938 552.257812 180.664062 L 552.257812 213.488281 C 552.257812 219.867188 561.597656 219.867188 561.597656 213.488281 L 561.597656 183.472656 L 563.808594 183.472656 L 563.808594 265.65625 C 563.808594 274.1875 576.242188 273.9375 576.242188 265.65625 L 576.242188 217.949219 L 578.386719 217.949219 L 578.386719 265.65625 C 578.386719 273.9375 590.890625 274.1875 590.890625 265.65625 L 590.890625 183.472656 L 593.046875 183.472656 L 593.046875 213.488281 C 593.046875 219.917969 602.339844 219.917969 602.324219 213.488281 L 602.324219 180.863281 C 602.324219 173.761719 596.808594 166.804688 588.496094 166.804688 Z M 565.914062 166.789062 " fill-opacity="1" fill-rule="nonzero"/></g><g clip-path="url(#054b291b26)"><path fill="#2252b2" d="M 577.355469 306.132812 C 583.257812 306.132812 588.046875 301.347656 588.046875 295.441406 C 588.046875 289.539062 583.257812 284.75 577.355469 284.75 C 571.453125 284.75 566.664062 289.539062 566.664062 295.441406 C 566.664062 301.347656 571.453125 306.132812 577.355469 306.132812 Z M 577.355469 306.132812 " fill-opacity="1" fill-rule="nonzero"/></g><g clip-path="url(#5808896220)"><path fill="#2252b2" d="M 565.914062 308.492188 C 558.34375 308.492188 552.257812 314.667969 552.257812 322.367188 L 552.257812 355.191406 C 552.257812 361.574219 561.597656 361.574219 561.597656 355.191406 L 561.597656 325.179688 L 563.808594 325.179688 L 563.808594 407.359375 C 563.808594 415.890625 576.242188 415.640625 576.242188 407.359375 L 576.242188 359.65625 L 578.386719 359.65625 L 578.386719 407.359375 C 578.386719 415.640625 590.890625 415.890625 590.890625 407.359375 L 590.890625 325.179688 L 593.046875 325.179688 L 593.046875 355.191406 C 593.046875 361.621094 602.339844 361.621094 602.324219 355.191406 L 602.324219 322.566406 C 602.324219 315.464844 596.808594 308.507812 588.496094 308.507812 L 565.914062 308.496094 Z M 565.914062 308.492188 " fill-opacity="1" fill-rule="nonzero"/></g><g clip-path="url(#15d03b4139)"><path fill="#2252b2" d="M 578.398438 448.109375 C 584.300781 448.109375 589.085938 443.324219 589.085938 437.417969 C 589.085938 431.515625 584.300781 426.726562 578.398438 426.726562 C 572.492188 426.726562 567.707031 431.515625 567.707031 437.417969 C 567.707031 443.324219 572.492188 448.109375 578.398438 448.109375 Z M 578.398438 448.109375 " fill-opacity="1" fill-rule="nonzero"/></g><g clip-path="url(#3ffa4b4528)"><path fill="#2252b2" d="M 566.957031 450.46875 C 559.386719 450.46875 553.296875 456.640625 553.296875 464.34375 L 553.296875 497.167969 C 553.296875 503.546875 562.636719 503.546875 562.636719 497.167969 L 562.636719 467.15625 L 564.847656 467.15625 L 564.847656 549.335938 C 564.847656 557.867188 577.285156 557.617188 577.285156 549.335938 L 577.285156 501.632812 L 579.425781 501.632812 L 579.425781 549.335938 C 579.425781 557.617188 591.929688 557.867188 591.929688 549.335938 L 591.929688 467.15625 L 594.089844 467.15625 L 594.089844 497.167969 C 594.089844 503.597656 603.378906 503.597656 603.363281 497.167969 L 603.363281 464.542969 C 603.363281 457.441406 597.847656 450.484375 589.535156 450.484375 L 566.957031 450.472656 Z M 566.957031 450.46875 " fill-opacity="1" fill-rule="nonzero"/></g></svg>